<?xml version="1.0" encoding="utf-8"?>
<svg version="1.1"
	 id="svg3231" sodipodi:docname="icon-account--educator.svg" inkscape:version="0.48.4 r9939" xmlns:rdf="http://www.w3.org/1999/02/22-rdf-syntax-ns#" xmlns:svg="http://www.w3.org/2000/svg" xmlns:sodipodi="http://sodipodi.sourceforge.net/DTD/sodipodi-0.dtd" xmlns:inkscape="http://www.inkscape.org/namespaces/inkscape" xmlns:dc="http://purl.org/dc/elements/1.1/" xmlns:cc="http://creativecommons.org/ns#"
	 xmlns="http://www.w3.org/2000/svg" xmlns:xlink="http://www.w3.org/1999/xlink" x="0px" y="0px" viewBox="0 2 30 30"
	 style="enable-background:new 0 2 30 30;" xml:space="preserve">
<style type="text/css">
	.st0{fill:#333333;}
</style>
<sodipodi:namedview  inkscape:current-layer="svg3231" inkscape:window-maximized="1" inkscape:window-y="-8" inkscape:window-x="1974" inkscape:window-height="1058" inkscape:window-width="1858" inkscape:pageshadow="2" inkscape:pageopacity="0" objecttolerance="10" showgrid="false" guidetolerance="10" gridtolerance="10" bordercolor="#666666" pagecolor="#ffffff" id="namedview3237" borderopacity="1" inkscape:zoom="32" inkscape:cy="21.527511" inkscape:cx="13.573752">
	</sodipodi:namedview>
<path class="st0" d="M28.6,2H1.4C0.6,2,0,2.6,0,3.4v27.2C0,31.4,0.6,32,1.4,32h27.2c0.8,0,1.4-0.6,1.4-1.4V3.4C30,2.6,29.4,2,28.6,2
	z M27.2,4.8v10.4c-0.3-0.1-0.7-0.2-0.7-0.2s-0.1-1.1-0.2-1.6c-0.1-0.4-0.3-0.7-0.5-1.1c-0.2-0.3-0.5-0.9-0.5-0.9s-0.2-0.5-0.5-0.7
	c-0.2-0.1-0.6-0.2-0.6-0.2s-0.2-0.2-0.4-0.1c-0.2,0-0.6,0.4-0.6,0.4s0.7,1.6,0.6,2.4c0,0.3-0.8-0.4-0.8-0.4l-0.5-0.2L22.4,13
	l2.2,2.5l0.2,1.3c0,0,0.1,1.2-0.3,1.7c-0.3,0.3-1,0.5-1,0.5l-0.6,0c-0.5-0.4-0.5-0.7-0.8-0.9c-1.3-0.5-1.3,0.1-2.4,0
	c-1.5,0.2-2.6-0.1-2.6-0.1l-0.3-1.3c0,0,0.5-0.5,0.6-1.9c0.4,0.1,0.5-0.5,0.4-0.8c0-0.3,0.1-1.4-0.3-1.2c0-0.7,0.1-1.3,0-1.7
	c-0.2-1.1-1.1-2.3-3.1-2.2c-1.7,0.2-2.7,1.5-2.7,2.7c0,0.3,0.1,1,0.3,1.6c-0.5-0.1-0.2,1-0.1,1.3c0.1,0.3,0.2,0.9,0.6,0.7
	c0.3,1.4,0.9,1.8,0.9,1.8l0.1,0.8c0,0-0.6,0.7-2.3,0.7c-1.1-0.1-1.8-0.4-2.8,0.1c-0.4,0.8-0.4,1.4-2.1,1.8c-0.3,0.1-1,0.1-1.3,0.1
	c-0.3,0-0.1-1.5,0.3-2.1c0.1-0.2,0.1-0.5-0.2-0.9l0.1-0.1l0.5-1.6l0.5-0.1c0,0,0.5-0.6,0.6-0.6c0-0.1,0.1-0.5,0.1-0.5l0.1-0.2
	L7,13.6l-0.4-0.5l-0.1,0L6.8,13l0.1-0.4l-0.2-0.1l-0.2,0l4.8-5.8l-0.4-0.2l-5.3,6.1l-0.2,0l0,0l-0.1,0l-0.1,0l0,0l-1.4,0.7l-0.3,0.5
	l0,0.7l-0.1,1.2l-0.2,0.8c0,0,0,0,0,0c-0.1,0-0.2,0.1-0.2,0.2v-12H27.2z M2.8,28.6v-3.8c0.4,0.1,0.8,0.1,1.1,0.2
	c1.1,0.1,1.9-0.1,3.2-0.2l1.4-0.1l0.8,2.5l0.3,1.4C7.4,28.6,5.2,28.6,2.8,28.6z M22.1,28.6l0.5-4.7l1-0.6c0,0,1.6-0.3,2.3-0.7
	c0.3-0.2,0.8-0.5,1.2-0.7v6.8C25.3,28.6,23.7,28.6,22.1,28.6z"/>
</svg>
